<svg width="155" height="153" xmlns="http://www.w3.org/2000/svg" xmlns:xlink="http://www.w3.org/1999/xlink" xml:space="preserve" overflow="hidden"><g transform="translate(-256 -121)"><path d="M48.6168 123.115 25.3808 109.674 25.1664 81.2902C25.0234 56.8388 25.1664 52.835 26.0243 52.4776 27.3112 51.9771 73.6402 78.5734 73.6402 79.8603 73.6402 80.2892 73.3542 80.8612 72.9252 81.1472 72.5678 81.3617 66.0617 77.9299 58.4832 73.5687 50.9047 69.136 40.8953 63.3449 36.3196 60.6995L27.8832 55.8378 27.8832 81.7906 27.8832 107.815 34.5322 111.604C38.107 113.678 48.0449 119.326 56.4813 124.187 66.3477 129.979 72.2818 132.981 73.1397 132.695 73.9262 132.552 83.9355 126.976 95.5178 120.398 113.463 110.103 116.537 108.172 116.537 106.743 116.537 104.884 118.825 102.238 120.47 102.238 122.471 102.238 125.26 105.67 124.759 107.457 124.116 109.602 122.328 110.818 120.184 110.675 118.968 110.603 110.746 114.893 95.6607 123.544 83.1491 130.693 72.7107 136.556 72.4248 136.556 72.0673 136.556 61.4145 130.479 48.6168 123.115Z" fill="#FFFFFF" transform="matrix(1.00601 0 0 -1 256.18 274)"/><path d="M64.8463 104.026C53.6215 97.5196 51.7626 96.7332 49.4748 97.0192 44.8276 97.5911 42.3967 93.9449 45.1135 90.5846 47.4729 87.5103 51.4051 88.2967 52.7635 92.086 53.3355 93.7304 55.8378 95.4463 65.6327 101.023 72.2818 104.812 78.2159 107.958 78.7164 107.958 79.2883 107.958 84.3645 105.241 90.0126 101.881 98.0916 97.1621 100.594 96.0182 101.309 96.6617 102.167 97.3051 102.167 97.5911 101.38 98.3776 99.8075 99.8075 79.2883 111.533 78.3589 111.461 77.9299 111.461 71.8528 108.101 64.8463 104.026Z" fill="#FFFFFF" transform="matrix(1.00601 0 0 -1 256.18 274)"/><path d="M103.811 87.7248C90.7991 80.2178 80.0748 73.8547 80.0748 73.6402 80.0748 73.4257 80.3607 72.8537 80.7182 72.2818 81.2187 71.5668 86.3663 74.2836 103.597 84.2215L125.832 97.0907 125.832 71.1378 125.832 45.185 104.026 32.6019C92.0145 25.6668 81.7906 20.0187 81.3617 20.0187 80.8612 20.0187 70.7089 25.5953 58.8407 32.3159 40.5378 42.7542 37.1776 44.8991 37.1776 46.2575 37.1776 48.1164 34.8182 50.7617 33.2453 50.7617 32.6019 50.7617 31.315 49.9752 30.3855 49.0458 28.8126 47.4729 28.7411 46.9724 29.3846 45.2565 30.314 42.8257 31.2435 42.1822 33.8173 42.1822 35.1042 42.1822 43.9696 37.535 58.4117 29.2416 80.2892 16.7299 81.1472 16.3724 83.0061 17.3019 84.15 17.8023 94.8028 23.8794 106.743 30.743L128.477 43.2547 128.835 70.7804C129.049 89.6551 128.906 98.8065 128.406 99.879 127.619 101.38 126.904 101.023 103.811 87.7248Z" fill="#FFFFFF" transform="matrix(1.00601 0 0 -1 256.18 274)"/><path d="M102.381 62.7014C101.523 61.772 100.808 60.5565 100.808 59.9846 100.808 58.9836 76.929 45.0421 75.2131 45.0421 74.7126 45.0421 69.6364 47.7589 63.9168 51.1192 53.979 56.9103 52.1916 57.5537 52.1916 55.4804 52.1916 54.6939 70.9949 43.1117 74.4266 41.8248 75.1416 41.5388 80.4322 44.1126 88.3682 48.7598 100.165 55.4804 101.452 56.0523 104.526 55.9093 107.457 55.6949 108.029 55.9093 109.03 57.4822 110.317 59.4126 110.031 61.486 108.244 63.2734 106.671 64.8463 104.169 64.5603 102.381 62.7014Z" fill="#FFFFFF" transform="matrix(1.00601 0 0 -1 256.18 274)"/></g></svg>